<mxfile host="Electron" modified="2023-11-06T11:45:21.593Z" agent="Mozilla/5.0 (Windows NT 10.0; Win64; x64) AppleWebKit/537.36 (KHTML, like Gecko) draw.io/22.0.3 Chrome/114.0.5735.289 Electron/25.8.4 Safari/537.36" etag="vhmOilSP-eW0P9G3Zuzp" version="22.0.3" type="device">
  <diagram name="Page-1" id="vcEPFt_Lp80TqAtp8AqC">
    <mxGraphModel dx="1297" dy="905" grid="1" gridSize="10" guides="1" tooltips="1" connect="1" arrows="1" fold="1" page="1" pageScale="1" pageWidth="850" pageHeight="1100" math="0" shadow="0">
      <root>
        <mxCell id="0" />
        <mxCell id="1" parent="0" />
        <mxCell id="gQ1NQkGNz1sMh0HQZxKz-8" style="edgeStyle=orthogonalEdgeStyle;rounded=0;orthogonalLoop=1;jettySize=auto;html=1;exitX=1;exitY=0.5;exitDx=0;exitDy=0;" edge="1" parent="1" source="m4jgO-4sw4jdDZecaCaA-5" target="m4jgO-4sw4jdDZecaCaA-13">
          <mxGeometry relative="1" as="geometry" />
        </mxCell>
        <mxCell id="m4jgO-4sw4jdDZecaCaA-5" value="Gas" style="ellipse;whiteSpace=wrap;html=1;fillColor=#ffffff;strokeColor=#000000;" parent="1" vertex="1">
          <mxGeometry y="360" width="120" height="80" as="geometry" />
        </mxCell>
        <mxCell id="gQ1NQkGNz1sMh0HQZxKz-12" style="edgeStyle=orthogonalEdgeStyle;rounded=0;orthogonalLoop=1;jettySize=auto;html=1;exitX=1;exitY=0.5;exitDx=0;exitDy=0;" edge="1" parent="1" source="m4jgO-4sw4jdDZecaCaA-13" target="gQ1NQkGNz1sMh0HQZxKz-6">
          <mxGeometry relative="1" as="geometry" />
        </mxCell>
        <mxCell id="m4jgO-4sw4jdDZecaCaA-13" value="Gas Heater&lt;br&gt;(Gas Heater, Gas, Decentral Heat)" style="rounded=0;whiteSpace=wrap;html=1;fillColor=#fff2cc;strokeColor=#d6b656;" parent="1" vertex="1">
          <mxGeometry x="190" y="360" width="190" height="80" as="geometry" />
        </mxCell>
        <mxCell id="m4jgO-4sw4jdDZecaCaA-19" value="dummy" style="ellipse;whiteSpace=wrap;html=1;dashed=1;dashPattern=8 8;" parent="1" vertex="1">
          <mxGeometry x="830" y="490" width="120" height="80" as="geometry" />
        </mxCell>
        <mxCell id="gQ1NQkGNz1sMh0HQZxKz-9" style="edgeStyle=orthogonalEdgeStyle;rounded=0;orthogonalLoop=1;jettySize=auto;html=1;exitX=1;exitY=0;exitDx=0;exitDy=0;entryX=0;entryY=0.25;entryDx=0;entryDy=0;" edge="1" parent="1" source="gQ1NQkGNz1sMh0HQZxKz-1" target="gQ1NQkGNz1sMh0HQZxKz-3">
          <mxGeometry relative="1" as="geometry" />
        </mxCell>
        <mxCell id="gQ1NQkGNz1sMh0HQZxKz-10" style="edgeStyle=orthogonalEdgeStyle;rounded=0;orthogonalLoop=1;jettySize=auto;html=1;exitX=1;exitY=1;exitDx=0;exitDy=0;entryX=0;entryY=0.25;entryDx=0;entryDy=0;" edge="1" parent="1" source="gQ1NQkGNz1sMh0HQZxKz-1" target="gQ1NQkGNz1sMh0HQZxKz-4">
          <mxGeometry relative="1" as="geometry" />
        </mxCell>
        <mxCell id="gQ1NQkGNz1sMh0HQZxKz-1" value="Electricity" style="ellipse;whiteSpace=wrap;html=1;fillColor=#ffffff;strokeColor=#000000;" vertex="1" parent="1">
          <mxGeometry y="480" width="120" height="80" as="geometry" />
        </mxCell>
        <mxCell id="gQ1NQkGNz1sMh0HQZxKz-11" style="edgeStyle=orthogonalEdgeStyle;rounded=0;orthogonalLoop=1;jettySize=auto;html=1;exitX=1;exitY=0.5;exitDx=0;exitDy=0;entryX=0;entryY=0.5;entryDx=0;entryDy=0;" edge="1" parent="1" source="gQ1NQkGNz1sMh0HQZxKz-2" target="gQ1NQkGNz1sMh0HQZxKz-5">
          <mxGeometry relative="1" as="geometry" />
        </mxCell>
        <mxCell id="gQ1NQkGNz1sMh0HQZxKz-2" value="Biomass" style="ellipse;whiteSpace=wrap;html=1;fillColor=#ffffff;strokeColor=#000000;" vertex="1" parent="1">
          <mxGeometry y="650" width="120" height="80" as="geometry" />
        </mxCell>
        <mxCell id="gQ1NQkGNz1sMh0HQZxKz-13" style="edgeStyle=orthogonalEdgeStyle;rounded=0;orthogonalLoop=1;jettySize=auto;html=1;exitX=1;exitY=0.25;exitDx=0;exitDy=0;entryX=0;entryY=0;entryDx=0;entryDy=0;" edge="1" parent="1" source="gQ1NQkGNz1sMh0HQZxKz-3" target="gQ1NQkGNz1sMh0HQZxKz-6">
          <mxGeometry relative="1" as="geometry" />
        </mxCell>
        <mxCell id="gQ1NQkGNz1sMh0HQZxKz-3" value="Resistive Heater&lt;br&gt;(Resistive, Electricity, Decentral Heat)" style="rounded=0;whiteSpace=wrap;html=1;fillColor=#fff2cc;strokeColor=#d6b656;" vertex="1" parent="1">
          <mxGeometry x="190" y="460" width="190" height="80" as="geometry" />
        </mxCell>
        <mxCell id="gQ1NQkGNz1sMh0HQZxKz-14" style="edgeStyle=orthogonalEdgeStyle;rounded=0;orthogonalLoop=1;jettySize=auto;html=1;exitX=1;exitY=0.25;exitDx=0;exitDy=0;entryX=0;entryY=1;entryDx=0;entryDy=0;" edge="1" parent="1" source="gQ1NQkGNz1sMh0HQZxKz-4" target="gQ1NQkGNz1sMh0HQZxKz-6">
          <mxGeometry relative="1" as="geometry" />
        </mxCell>
        <mxCell id="gQ1NQkGNz1sMh0HQZxKz-4" value="Heat Pump&lt;br&gt;(HP, Electricity, Dencentral Heat)" style="rounded=0;whiteSpace=wrap;html=1;fillColor=#fff2cc;strokeColor=#d6b656;" vertex="1" parent="1">
          <mxGeometry x="190" y="550" width="190" height="80" as="geometry" />
        </mxCell>
        <mxCell id="gQ1NQkGNz1sMh0HQZxKz-15" style="edgeStyle=orthogonalEdgeStyle;rounded=0;orthogonalLoop=1;jettySize=auto;html=1;exitX=1;exitY=0.5;exitDx=0;exitDy=0;entryX=0.5;entryY=1;entryDx=0;entryDy=0;" edge="1" parent="1" source="gQ1NQkGNz1sMh0HQZxKz-5" target="gQ1NQkGNz1sMh0HQZxKz-6">
          <mxGeometry relative="1" as="geometry" />
        </mxCell>
        <mxCell id="gQ1NQkGNz1sMh0HQZxKz-5" value="Biomass Heater&lt;br&gt;(Biomass Heater, Biomass, Decentral Heat)" style="rounded=0;whiteSpace=wrap;html=1;fillColor=#fff2cc;strokeColor=#d6b656;" vertex="1" parent="1">
          <mxGeometry x="190" y="650" width="190" height="80" as="geometry" />
        </mxCell>
        <mxCell id="gQ1NQkGNz1sMh0HQZxKz-16" style="edgeStyle=orthogonalEdgeStyle;rounded=0;orthogonalLoop=1;jettySize=auto;html=1;exitX=1;exitY=0.5;exitDx=0;exitDy=0;entryX=0;entryY=0.5;entryDx=0;entryDy=0;" edge="1" parent="1" source="gQ1NQkGNz1sMh0HQZxKz-6" target="gQ1NQkGNz1sMh0HQZxKz-7">
          <mxGeometry relative="1" as="geometry" />
        </mxCell>
        <mxCell id="gQ1NQkGNz1sMh0HQZxKz-6" value="Decentral Heat" style="ellipse;whiteSpace=wrap;html=1;fillColor=#ffffff;strokeColor=#000000;" vertex="1" parent="1">
          <mxGeometry x="430" y="490" width="120" height="80" as="geometry" />
        </mxCell>
        <mxCell id="gQ1NQkGNz1sMh0HQZxKz-17" style="edgeStyle=orthogonalEdgeStyle;rounded=0;orthogonalLoop=1;jettySize=auto;html=1;exitX=1;exitY=0.5;exitDx=0;exitDy=0;entryX=0;entryY=0.5;entryDx=0;entryDy=0;" edge="1" parent="1" source="gQ1NQkGNz1sMh0HQZxKz-7" target="m4jgO-4sw4jdDZecaCaA-19">
          <mxGeometry relative="1" as="geometry" />
        </mxCell>
        <mxCell id="gQ1NQkGNz1sMh0HQZxKz-7" value="Demand Heat&lt;br&gt;(Demand Heat, Decentral Heat, Dummy)" style="rounded=0;whiteSpace=wrap;html=1;fillColor=#fff2cc;strokeColor=#d6b656;" vertex="1" parent="1">
          <mxGeometry x="590" y="490" width="190" height="80" as="geometry" />
        </mxCell>
        <mxCell id="gQ1NQkGNz1sMh0HQZxKz-21" style="edgeStyle=orthogonalEdgeStyle;rounded=0;orthogonalLoop=1;jettySize=auto;html=1;exitX=0;exitY=0.25;exitDx=0;exitDy=0;entryX=0.5;entryY=0;entryDx=0;entryDy=0;strokeColor=#A50040;fillColor=#d80073;" edge="1" parent="1" source="gQ1NQkGNz1sMh0HQZxKz-18" target="gQ1NQkGNz1sMh0HQZxKz-20">
          <mxGeometry relative="1" as="geometry" />
        </mxCell>
        <mxCell id="gQ1NQkGNz1sMh0HQZxKz-23" style="edgeStyle=orthogonalEdgeStyle;rounded=0;orthogonalLoop=1;jettySize=auto;html=1;exitX=0.5;exitY=1;exitDx=0;exitDy=0;fillColor=#a20025;strokeColor=#6F0000;" edge="1" parent="1" source="gQ1NQkGNz1sMh0HQZxKz-18" target="gQ1NQkGNz1sMh0HQZxKz-22">
          <mxGeometry relative="1" as="geometry" />
        </mxCell>
        <mxCell id="gQ1NQkGNz1sMh0HQZxKz-18" value="&lt;h1 style=&quot;font-size: 19px;&quot;&gt;&lt;font style=&quot;font-size: 19px;&quot;&gt;Output Load Profile&lt;/font&gt;&lt;/h1&gt;&lt;div&gt;&lt;font style=&quot;font-size: 14px;&quot;&gt;Each House only have one of these systems installed. The output load profile is hence constrained to be equal to the demand load profile.&lt;/font&gt;&lt;font style=&quot;font-size: 19px;&quot;&gt;&amp;nbsp;&lt;/font&gt;&lt;/div&gt;" style="text;html=1;strokeColor=none;fillColor=none;spacing=5;spacingTop=-20;whiteSpace=wrap;overflow=hidden;rounded=0;" vertex="1" parent="1">
          <mxGeometry x="525" y="290" width="320" height="120" as="geometry" />
        </mxCell>
        <mxCell id="gQ1NQkGNz1sMh0HQZxKz-20" value="cv" style="rounded=0;whiteSpace=wrap;html=1;fillColor=none;dashed=1;dashPattern=8 8;fontColor=#ffffff;strokeColor=#A50040;gradientColor=default;" vertex="1" parent="1">
          <mxGeometry x="160" y="340" width="240" height="410" as="geometry" />
        </mxCell>
        <mxCell id="gQ1NQkGNz1sMh0HQZxKz-22" value="" style="rounded=0;whiteSpace=wrap;html=1;fillColor=none;fontColor=#ffffff;strokeColor=#A50040;gradientColor=none;dashed=1;dashPattern=8 8;" vertex="1" parent="1">
          <mxGeometry x="575" y="470" width="220" height="120" as="geometry" />
        </mxCell>
      </root>
    </mxGraphModel>
  </diagram>
</mxfile>
